<?xml version="1.0" encoding="UTF-8" standalone="no"?>
<svg xmlns="http://www.w3.org/2000/svg" version="1.0" width="63.000000pt" height="63.000000pt" viewBox="0 0 63.000000 63.000000" preserveAspectRatio="xMidYMid meet">
  <g transform="translate(0.000000,63.000000) scale(0.100000,-0.100000)" fill="#000000" stroke="none">
    <path d="M194 399 c-3 -6 1 -18 9 -27 13 -12 19 -13 31 -3 8 7 12 19 9 27 -6 17 -39 19 -49 3z"></path>
    <path d="M330 335 c-22 -30 -40 -58 -40 -63 0 -5 11 -19 25 -32 14 -13 25 -28 25 -34 0 -6 -24 13 -53 42 -29 29 -59 52 -68 52 -17 0 -99 -82 -99 -99 0 -8 62 -11 200 -11 193 0 200 1 200 20 0 11 -4 20 -8 20 -5 0 -33 36 -63 80 -29 44 -59 80 -66 80 -7 0 -31 -25 -53 -55z"></path>
  </g>
</svg>
