<?xml version="1.0" standalone="no"?>
<!DOCTYPE svg PUBLIC "-//W3C//DTD SVG 20010904//EN"
 "http://www.w3.org/TR/2001/REC-SVG-20010904/DTD/svg10.dtd">
<svg version="1.0" xmlns="http://www.w3.org/2000/svg"
 width="182.000000pt" height="180.000000pt" viewBox="0 0 182.000000 180.000000"
 preserveAspectRatio="xMidYMid meet">

<g transform="translate(0.000000,180.000000) scale(0.100000,-0.100000)"
fill="#000000" stroke="none">
<path d="M342 1338 c-15 -15 -17 -764 -2 -788 8 -13 83 -15 556 -18 480 -2
550 -1 570 13 l24 15 0 383 c0 285 -3 386 -12 395 -17 17 -1119 17 -1136 0z
m1112 -14 c14 -5 16 -45 16 -347 0 -292 -2 -339 -14 -327 -8 8 -85 115 -171
238 -87 124 -168 228 -181 234 -37 17 -62 -7 -186 -185 l-115 -165 90 -91 c72
-71 89 -93 79 -103 -9 -9 -45 21 -165 140 -128 127 -158 152 -182 152 -25 0
-51 -21 -152 -122 l-123 -123 0 347 c0 268 3 347 13 351 18 8 1072 8 1091 1z"/>
<path d="M587 1183 c-26 -7 -49 -59 -42 -94 13 -59 86 -79 130 -34 63 62 2
151 -88 128z"/>
</g>
</svg>
